<svg width="1638" height="1638" viewBox="0 0 1638 1638" fill="none" xmlns="http://www.w3.org/2000/svg">
  <!-- Mark-only layer for Icon Composer: background comes from icon.json fill -->
  <path d="M1325.35 189H311.87C258.922 189 216 231.922 216 284.87C216 337.817 258.922 380.739 311.87 380.739H1325.35C1378.3 380.739 1421.22 337.817 1421.22 284.87C1421.22 231.922 1378.3 189 1325.35 189Z" fill="white"/>
  <path d="M777.522 599.87H311.87C258.922 599.87 216 642.792 216 695.739C216 748.686 258.922 791.609 311.87 791.609H777.522C830.469 791.609 873.391 748.686 873.391 695.739C873.391 642.792 830.469 599.87 777.522 599.87Z" fill="white"/>
  <path d="M900.783 476.609C900.783 423.662 857.86 380.739 804.913 380.739C751.966 380.739 709.043 423.662 709.043 476.609V695.739C709.043 748.687 751.966 791.609 804.913 791.609C857.86 791.609 900.783 748.687 900.783 695.739V476.609Z" fill="white"/>
  <path d="M1325.35 1010.74H311.87C258.922 1010.74 216 1053.66 216 1106.61C216 1159.56 258.922 1202.48 311.87 1202.48H1325.35C1378.3 1202.48 1421.22 1159.56 1421.22 1106.61C1421.22 1053.66 1378.3 1010.74 1325.35 1010.74Z" fill="white"/>
  <path d="M900.783 1298.35C900.783 1245.4 857.86 1202.48 804.913 1202.48C751.966 1202.48 709.043 1245.4 709.043 1298.35V1353.13C709.043 1406.08 751.966 1449 804.913 1449C857.86 1449 900.783 1406.08 900.783 1353.13V1298.35Z" fill="white"/>
</svg>
